<?xml version="1.0" encoding="iso-8859-1"?>
<!-- Generator: Adobe Illustrator 17.1.0, SVG Export Plug-In . SVG Version: 6.00 Build 0)  -->
<!DOCTYPE svg PUBLIC "-//W3C//DTD SVG 1.1//EN" "http://www.w3.org/Graphics/SVG/1.1/DTD/svg11.dtd">
<svg version="1.1" id="Capa_1" xmlns="http://www.w3.org/2000/svg" xmlns:xlink="http://www.w3.org/1999/xlink" x="0px" y="0px"
	 viewBox="0 0 470 470" style="enable-background:new 0 0 470 470;" xml:space="preserve">
<g>
	<path d="M354.771,249.786H129.165c-48.738,0-88.389-39.651-88.389-88.389c0-46.775,36.749-85.351,82.891-88.208
		C143.932,28.564,188.042,0,237.378,0c30.294,0,59.511,10.984,82.27,30.928c20.927,18.34,35.097,43.051,40.34,70.131
		c38.629,2.687,69.237,34.973,69.237,74.273C429.225,216.386,395.825,249.786,354.771,249.786z M237.378,15
		c-44.852,0-84.796,26.832-101.764,68.356c-1.146,2.805-3.868,4.645-6.898,4.663c-40.219,0.242-72.94,33.158-72.94,73.377
		c0,40.467,32.922,73.389,73.389,73.389h225.607c32.782,0,59.453-26.671,59.453-59.454s-26.671-59.454-59.453-59.454
		c-0.143,0-0.284,0.006-0.426,0.011c-0.199,0.007-0.399,0.013-0.601,0.017c-3.804,0.04-7.032-2.703-7.559-6.455
		C338.618,55.605,291.841,15,237.378,15z"/>
	<path d="M178.598,355.146c-4.142,0-7.5-3.358-7.5-7.5v-28.88c0-4.142,3.358-7.5,7.5-7.5s7.5,3.358,7.5,7.5v28.88
		C186.098,351.788,182.74,355.146,178.598,355.146z"/>
	<path d="M291.401,355.146c-4.143,0-7.5-3.358-7.5-7.5v-28.88c0-4.142,3.357-7.5,7.5-7.5s7.5,3.358,7.5,7.5v28.88
		C298.901,351.788,295.544,355.146,291.401,355.146z"/>
	<path d="M122.197,316.861c-4.142,0-7.5-3.358-7.5-7.5v-28.88c0-4.142,3.358-7.5,7.5-7.5s7.5,3.358,7.5,7.5v28.88
		C129.697,313.503,126.339,316.861,122.197,316.861z"/>
	<path d="M235,316.861c-4.142,0-7.5-3.358-7.5-7.5v-28.88c0-4.142,3.358-7.5,7.5-7.5c4.143,0,7.5,3.358,7.5,7.5v28.88
		C242.5,313.503,239.143,316.861,235,316.861z"/>
	<path d="M347.804,316.861c-4.143,0-7.5-3.358-7.5-7.5v-28.88c0-4.142,3.357-7.5,7.5-7.5s7.5,3.358,7.5,7.5v28.88
		C355.304,313.503,351.946,316.861,347.804,316.861z"/>
	<path d="M122.197,393.431c-4.142,0-7.5-3.358-7.5-7.5v-28.88c0-4.142,3.358-7.5,7.5-7.5s7.5,3.358,7.5,7.5v28.88
		C129.697,390.073,126.339,393.431,122.197,393.431z"/>
	<path d="M235,393.431c-4.142,0-7.5-3.358-7.5-7.5v-28.88c0-4.142,3.358-7.5,7.5-7.5c4.143,0,7.5,3.358,7.5,7.5v28.88
		C242.5,390.073,239.143,393.431,235,393.431z"/>
	<path d="M347.804,393.431c-4.143,0-7.5-3.358-7.5-7.5v-28.88c0-4.142,3.357-7.5,7.5-7.5s7.5,3.358,7.5,7.5v28.88
		C355.304,390.073,351.946,393.431,347.804,393.431z"/>
	<path d="M178.598,431.715c-4.142,0-7.5-3.358-7.5-7.5v-28.88c0-4.142,3.358-7.5,7.5-7.5s7.5,3.358,7.5,7.5v28.88
		C186.098,428.357,182.74,431.715,178.598,431.715z"/>
	<path d="M291.401,431.715c-4.143,0-7.5-3.358-7.5-7.5v-28.88c0-4.142,3.357-7.5,7.5-7.5s7.5,3.358,7.5,7.5v28.88
		C298.901,428.357,295.544,431.715,291.401,431.715z"/>
	<path d="M122.197,470c-4.142,0-7.5-3.358-7.5-7.5v-28.88c0-4.142,3.358-7.5,7.5-7.5s7.5,3.358,7.5,7.5v28.88
		C129.697,466.642,126.339,470,122.197,470z"/>
	<path d="M235,470c-4.142,0-7.5-3.358-7.5-7.5v-28.88c0-4.142,3.358-7.5,7.5-7.5c4.143,0,7.5,3.358,7.5,7.5v28.88
		C242.5,466.642,239.143,470,235,470z"/>
	<path d="M347.804,470c-4.143,0-7.5-3.358-7.5-7.5v-28.88c0-4.142,3.357-7.5,7.5-7.5s7.5,3.358,7.5,7.5v28.88
		C355.304,466.642,351.946,470,347.804,470z"/>
</g>
<g>
</g>
<g>
</g>
<g>
</g>
<g>
</g>
<g>
</g>
<g>
</g>
<g>
</g>
<g>
</g>
<g>
</g>
<g>
</g>
<g>
</g>
<g>
</g>
<g>
</g>
<g>
</g>
<g>
</g>
</svg>
