<?xml version="1.0" encoding="iso-8859-1"?>
<!-- Generator: Adobe Illustrator 16.0.0, SVG Export Plug-In . SVG Version: 6.00 Build 0)  -->
<!DOCTYPE svg PUBLIC "-//W3C//DTD SVG 1.1//EN" "http://www.w3.org/Graphics/SVG/1.1/DTD/svg11.dtd">
<svg version="1.1" id="Capa_1" xmlns="http://www.w3.org/2000/svg" xmlns:xlink="http://www.w3.org/1999/xlink" x="0px" y="0px"
	 width="60px" height="60px" viewBox="0 0 60 60" style="enable-background:new 0 0 60 60;" xml:space="preserve">
<g>
	<g>
		<path d="M30,0C13.458,0,0,13.458,0,30s13.458,30,30,30s30-13.458,30-30S46.542,0,30,0z M30,56.999c-14.888,0-27-12.112-27-27
			c0-14.888,12.112-27,27-27c14.889,0,27,12.112,27,27C57,44.887,44.889,56.999,30,56.999z"/>
		<path d="M10.917,28.833c0-0.552-0.448-1-1-1H4.583c-0.552,0-1,0.448-1,1s0.448,1,1,1h5.334
			C10.469,29.833,10.917,29.385,10.917,28.833z"/>
		<path d="M47.708,28.833c0,0.552,0.448,1,1,1h5.334c0.552,0,1-0.448,1-1s-0.448-1-1-1h-5.334
			C48.156,27.833,47.708,28.281,47.708,28.833z"/>
		<path d="M29.375,11.604c0.552,0,1-0.448,1-1V5.27c0-0.552-0.448-1-1-1c-0.552,0-1,0.448-1,1v5.334
			C28.375,11.156,28.823,11.604,29.375,11.604z"/>
		<path d="M29.375,48.395c-0.552,0-1,0.448-1,1v5.334c0,0.553,0.448,1,1,1c0.552,0,1-0.447,1-1v-5.334
			C30.375,48.843,29.927,48.395,29.375,48.395z"/>
		<circle cx="9.917" cy="18.249" r="1.167"/>
		<circle cx="49.875" cy="18.249" r="1.167"/>
		<circle cx="17.5" cy="9.104" r="1.167"/>
		<circle cx="41.25" cy="9.104" r="1.167"/>
		<circle cx="10.021" cy="41.749" r="1.167"/>
		<circle cx="49.979" cy="41.749" r="1.167"/>
		<circle cx="17.604" cy="50.896" r="1.167"/>
		<circle cx="41.354" cy="50.896" r="1.167"/>
		<path d="M26.221,12.05c-0.18-0.522-0.749-0.8-1.271-0.621c-0.522,0.18-0.8,0.748-0.621,1.271l6.019,17.512L17.052,43.18
			c-0.396,0.385-0.403,1.019-0.017,1.413c0.196,0.201,0.455,0.302,0.716,0.302c0.252,0,0.504-0.094,0.698-0.283l13.75-13.409
			c0.277-0.271,0.373-0.675,0.248-1.041L26.221,12.05z"/>
	</g>
</g>
<g>
</g>
<g>
</g>
<g>
</g>
<g>
</g>
<g>
</g>
<g>
</g>
<g>
</g>
<g>
</g>
<g>
</g>
<g>
</g>
<g>
</g>
<g>
</g>
<g>
</g>
<g>
</g>
<g>
</g>
</svg>
